<svg xmlns="http://www.w3.org/2000/svg" width="12" height="18" viewBox="0 0 12 18">
  <path id="Icon_metro-pin" data-name="Icon metro-pin" d="M18.607,16.485l-5.9-3.469a1.5,1.5,0,0,0-2.069.563,1.557,1.557,0,0,0,.554,2.106l5.9,3.469a1.5,1.5,0,0,0,2.069-.564,1.554,1.554,0,0,0-.553-2.105ZM13.74,12.735l4.59,2.7,1.561-4.423L16.721,9.147,13.74,12.735ZM10.356,24.1l4.391-5.43L12.78,17.51ZM21.787,8.564,17.854,6.251a1.124,1.124,0,0,0-1.551.423,1.167,1.167,0,0,0,.416,1.579l3.934,2.312a1.124,1.124,0,0,0,1.551-.423,1.167,1.167,0,0,0-.416-1.579Z" transform="translate(-10.356 -6.096)" opacity="0.37"/>
</svg>
