<svg xmlns="http://www.w3.org/2000/svg" xmlns:xlink="http://www.w3.org/1999/xlink" width="116" height="118" viewBox="0 0 116 118"><defs><clipPath id="a"><rect width="116" height="118" transform="translate(401 1604)" fill="#fff"/></clipPath></defs><g transform="translate(-401 -1604)" clip-path="url(#a)"><g transform="translate(401 1604.996)"><path d="M115.538,65.35a58.7,58.7,0,0,0,0-14.7c-7.306-1.138-13.153-2.435-13.687-4.408-.551-2.044,3.839-6.15,9.6-10.807a58.567,58.567,0,0,0-7.234-12.5c-6.9,2.666-12.638,4.461-14.131,2.986-1.475-1.475.32-7.234,2.986-14.114a57.485,57.485,0,0,0-12.5-7.252c-4.657,5.742-8.763,10.15-10.807,9.6-1.973-.515-3.289-6.381-4.408-13.687a58.639,58.639,0,0,0-14.7,0c-1.12,7.306-2.435,13.171-4.408,13.687-2.044.551-6.15-3.857-10.789-9.6a56.9,56.9,0,0,0-12.514,7.252c2.648,6.879,4.444,12.638,2.968,14.114S18.7,25.6,11.8,22.938a57.833,57.833,0,0,0-7.234,12.5c5.741,4.657,10.132,8.763,9.6,10.807C13.634,48.214,7.786,49.512.481,50.65a56.473,56.473,0,0,0,0,14.7c7.306,1.138,13.153,2.435,13.687,4.408.533,2.044-3.875,6.15-9.616,10.807a57.9,57.9,0,0,0,7.252,12.5c6.9-2.666,12.638-4.461,14.114-2.986s-.32,7.234-2.968,14.131a56.7,56.7,0,0,0,12.5,7.234c4.657-5.742,8.763-10.15,10.807-9.6,1.973.515,3.289,6.381,4.408,13.687a56.5,56.5,0,0,0,14.7,0c1.12-7.305,2.435-13.171,4.408-13.687,2.044-.551,6.15,3.857,10.807,9.6a56.7,56.7,0,0,0,12.5-7.234c-2.666-6.9-4.462-12.656-2.986-14.131,1.493-1.475,7.234.32,14.131,2.986a57.114,57.114,0,0,0,7.234-12.5c-5.741-4.657-10.149-8.763-9.6-10.807C102.385,67.785,108.233,66.487,115.538,65.35ZM76.7,60.39a18.26,18.26,0,0,1-1.315,4.942A18.588,18.588,0,0,1,73.02,69.4a18.573,18.573,0,0,1-7.679,5.972A18.467,18.467,0,0,1,60.4,76.708a20.155,20.155,0,0,1-4.782,0,18.288,18.288,0,0,1-4.941-1.333,19.248,19.248,0,0,1-4.07-2.346A19.453,19.453,0,0,1,42.98,69.4a18.521,18.521,0,0,1-2.346-4.07A18.268,18.268,0,0,1,39.3,60.39a20.155,20.155,0,0,1,0-4.782,18.446,18.446,0,0,1,1.333-4.941A18.978,18.978,0,0,1,50.677,40.624a18.248,18.248,0,0,1,4.941-1.315,17.92,17.92,0,0,1,4.782,0,19.107,19.107,0,0,1,4.941,1.315,19.312,19.312,0,0,1,4.071,2.364,18.843,18.843,0,0,1,3.608,3.626A18.356,18.356,0,0,1,76.7,55.609a17.971,17.971,0,0,1,0,4.782Z" fill="#e9e8db"/><path d="M40.634,50.659a19.137,19.137,0,0,1,2.346-4.053,18.934,18.934,0,0,1,3.626-3.626,19.323,19.323,0,0,1,4.07-2.364A18.248,18.248,0,0,1,55.618,39.3,17.661,17.661,0,0,1,58,39.141V0a58.793,58.793,0,0,0-7.341.462c-1.12,7.306-2.435,13.172-4.408,13.687-2.044.551-6.15-3.858-10.789-9.6A56.9,56.9,0,0,0,22.947,11.8c2.648,6.879,4.444,12.638,2.969,14.114S18.7,25.6,11.8,22.93a57.833,57.833,0,0,0-7.234,12.5c5.741,4.657,10.132,8.763,9.6,10.807C13.633,48.206,7.785,49.5.48,50.641a56.513,56.513,0,0,0,0,14.7c7.306,1.138,13.153,2.435,13.687,4.408.534,2.044-3.875,6.15-9.616,10.807a57.9,57.9,0,0,0,7.252,12.5c6.9-2.666,12.638-4.462,14.114-2.986S25.6,97.3,22.948,104.2a56.693,56.693,0,0,0,12.5,7.235c4.657-5.742,8.763-10.15,10.807-9.6,1.973.516,3.289,6.381,4.408,13.687A55.557,55.557,0,0,0,58,116V76.842a17.7,17.7,0,0,1-2.382-.142,18.28,18.28,0,0,1-4.941-1.333,19.25,19.25,0,0,1-4.07-2.346,19.446,19.446,0,0,1-3.626-3.626,18.521,18.521,0,0,1-2.346-4.07A18.275,18.275,0,0,1,39.3,60.382a20.124,20.124,0,0,1,0-4.782A18.442,18.442,0,0,1,40.634,50.659Z" fill="#f3f2e9"/><path d="M57.991,29.7A28.307,28.307,0,1,0,86.307,58.017,28.307,28.307,0,0,0,57.991,29.7Zm18.7,30.7a18.261,18.261,0,0,1-1.316,4.942,18.586,18.586,0,0,1-2.364,4.07,18.575,18.575,0,0,1-7.679,5.972,18.461,18.461,0,0,1-4.941,1.333,20.158,20.158,0,0,1-4.782,0,18.28,18.28,0,0,1-4.941-1.333A19.241,19.241,0,0,1,46.6,73.037a19.458,19.458,0,0,1-3.626-3.626,18.5,18.5,0,0,1-2.346-4.07A18.284,18.284,0,0,1,39.291,60.4a20.187,20.187,0,0,1,0-4.782,18.461,18.461,0,0,1,1.333-4.941A18.879,18.879,0,0,1,46.6,43a19.321,19.321,0,0,1,4.071-2.364,18.265,18.265,0,0,1,4.941-1.315,17.947,17.947,0,0,1,4.782,0,19.125,19.125,0,0,1,4.941,1.315A19.319,19.319,0,0,1,69.4,43a18.857,18.857,0,0,1,3.608,3.626,18.357,18.357,0,0,1,3.679,8.994,17.971,17.971,0,0,1,0,4.782Z" fill="#fefffe"/></g></g></svg>