<svg xmlns="http://www.w3.org/2000/svg" xmlns:xlink="http://www.w3.org/1999/xlink" width="116" height="118" viewBox="0 0 116 118"><defs><clipPath id="a"><rect width="116" height="118" transform="translate(471 600)" fill="#fff" stroke="#707070" stroke-width="1"/></clipPath></defs><g transform="translate(-471 -600)" clip-path="url(#a)"><g transform="translate(471 605.848)"><path d="M116,0l-.77,2.47-6.887,22.543H7.635L0,0Z" fill="#f1f1f1"/><path d="M115.57,51.362H.43a.406.406,0,0,1-.43-.34l7.635-25.67a.39.39,0,0,1,.43-.34h99.869a.406.406,0,0,1,.43.34L116,51.022A.406.406,0,0,1,115.57,51.362Z" fill="#fafafa"/><path d="M108.365,77.711H7.635L0,51.362H116Z" fill="#f1f1f1"/><path d="M115.864,105.193a1.259,1.259,0,0,1-.023.77c-.091.181-.7.34-.952.34H1.11a2.757,2.757,0,0,1-.793-.136c-.181-.091-.272-.7-.181-.952l.023-.068c.068-.249.181-.634.249-.884L4.916,88.11c.068-.249.181-.657.249-.884l2.356-8.383a5.051,5.051,0,0,1,.272-.77c.091-.181.7-.317.952-.317h98.509a2.757,2.757,0,0,1,.793.136c.181.068.385.7.453.952Z" fill="#fafafa"/><path d="M47.329,17.105h-30.4a1.16,1.16,0,0,1-1.155-1.155v-5.1A1.16,1.16,0,0,1,16.924,9.7h30.4a1.16,1.16,0,0,1,1.155,1.155v5.1A1.16,1.16,0,0,1,47.329,17.105Z" fill="#7bccac"/><g opacity="0.8"><path d="M96.357,37.7h-77.3A1.16,1.16,0,0,1,17.9,36.545V32.285a1.16,1.16,0,0,1,1.155-1.155h77.28a1.16,1.16,0,0,1,1.155,1.155v4.259A1.114,1.114,0,0,1,96.357,37.7Z" fill="#7bccac"/></g><g opacity="0.68"><path d="M99.076,48.462H16.924a1.16,1.16,0,0,1-1.155-1.155V43.047a1.16,1.16,0,0,1,1.155-1.155H99.053a1.16,1.16,0,0,1,1.155,1.155v4.259A1.127,1.127,0,0,1,99.076,48.462Z" fill="#7bccac"/></g><path d="M99.076,61.67H16.924a1.16,1.16,0,0,1-1.155-1.155V56.255A1.16,1.16,0,0,1,16.924,55.1H99.053a1.16,1.16,0,0,1,1.155,1.155v4.259A1.127,1.127,0,0,1,99.076,61.67Z" fill="#7bccac"/><path d="M95.655,73.474H18.374a1.16,1.16,0,0,1-1.155-1.155V68.059A1.16,1.16,0,0,1,18.374,66.9h77.28a1.16,1.16,0,0,1,1.155,1.155v4.259A1.146,1.146,0,0,1,95.655,73.474Z" fill="#7bccac"/><g opacity="0.68"><path d="M99.076,92.8H16.924a1.16,1.16,0,0,1-1.155-1.155v-5.1a1.16,1.16,0,0,1,1.155-1.155H99.053a1.16,1.16,0,0,1,1.155,1.155v5.1A1.127,1.127,0,0,1,99.076,92.8Z" fill="#7bccac"/></g><path d="M95.111,0A12.588,12.588,0,0,1,82.559,11.962a10.25,10.25,0,0,1-1.677-.136A12.527,12.527,0,0,1,70.008,0h-5.1A17.666,17.666,0,0,0,76.691,16.018a17.49,17.49,0,0,0,5.891,1.02A17.7,17.7,0,0,0,100.254,0Z" fill="#7bccac"/><path d="M90.738,0A8.446,8.446,0,0,1,90.1,2.605a8.241,8.241,0,0,1-4.3,4.3,8.132,8.132,0,0,1-3.24.68A8.183,8.183,0,0,1,74.4.023H71.345a11.248,11.248,0,0,0,10.762,10.6,3.346,3.346,0,0,0,.476.023A11.257,11.257,0,0,0,93.82.023L90.738,0Z" fill="#7bccac"/><path d="M92.936,87.272c-.023.068-.023.113-.045.181a4.951,4.951,0,0,0-.113.974,9.008,9.008,0,0,0,1.133,3.965,64.693,64.693,0,0,0-5.234,5.936,4.072,4.072,0,0,0-.566,1.042l.295-1.11,1.11-4.327a.979.979,0,0,0,.544-.612.908.908,0,0,0-.136-.725.226.226,0,0,0-.091-.113h0a.642.642,0,0,0-.249-.181,1.1,1.1,0,0,0-.159-.068H89.4a.9.9,0,0,0-1.11.657.887.887,0,0,0,.181.793l-1.382,5.438a3.984,3.984,0,0,0,0-1.178,63.8,63.8,0,0,0-1.767-7.7,8.735,8.735,0,0,0,2.9-2.945,4.539,4.539,0,0,0,.385-.906c.023-.045.023-.113.045-.159.408.091,2.13.544,2.13.544h.023C91.033,86.8,92.551,87.181,92.936,87.272Z" fill="#f5f2d8"/><path d="M92.936,87.272c-.023.068-.023.113-.045.181a4.951,4.951,0,0,0-.113.974l-2.243-.566-2.311-.589a4.539,4.539,0,0,0,.385-.906c.023-.045.023-.113.045-.159.408.091,2.13.544,2.13.544h.023C91.033,86.8,92.551,87.181,92.936,87.272Z" fill="#040000" opacity="0.2"/><path d="M101.455,60.991l-1.971,7.68-.091.317L94.952,86.343A1.612,1.612,0,0,1,93,87.5l-4.418-1.133c-.023,0-.023,0-.045-.023a1.59,1.59,0,0,1-1.11-1.926l4.191-16.426.227-.929h0l2.039-8,3.67.929Z" fill="#668d95"/><rect width="1.269" height="7.726" transform="translate(91.691 68.006) rotate(-75.676)" fill="#040000" opacity="0.2"/><path d="M105.488,43.047a4.611,4.611,0,0,1,.5,3.557l-.589,2.311-.612,2.379-4.577,17.9-.816-.2-3.829-.974-3.67-.929h0l-.816-.2L95.655,48.96l.612-2.379.589-2.311a4.677,4.677,0,0,1,3.557-3.421,4.329,4.329,0,0,1,2.084.023.083.083,0,0,1,.068.023,4.651,4.651,0,0,1,1.926,1.02A4.274,4.274,0,0,1,105.488,43.047Z" fill="#668d95"/><path d="M105.4,48.915l-.589,2.379-4.645-1.178L95,48.779l-.113-.023.589-2.379Z" fill="#f2dc90"/><path d="M105.488,43.047a4.66,4.66,0,0,0-2.877-2.152.083.083,0,0,1-.068-.023l-13.1,51.316a.918.918,0,0,1,.634,1.11.83.83,0,0,1-.544.612l-1.382,5.438c.385-1.473,5.8-6.955,5.8-6.955a8.649,8.649,0,0,1-1.133-3.965,4.728,4.728,0,0,1,.091-.974l.159.045a1.6,1.6,0,0,0,1.948-1.155l4.191-16.426.227-.929.816.2,4.577-17.9.612-2.379.589-2.311A4.831,4.831,0,0,0,105.488,43.047Z" fill="#040000" opacity="0.08"/><path d="M95.791,45.7l-.181.7L95,48.779l-2.062,8.066a.5.5,0,0,1-.612.363.487.487,0,0,1-.363-.589l2.855-11.147a.5.5,0,0,1,.612-.362A.487.487,0,0,1,95.791,45.7Z" fill="#f2dc90"/></g></g></svg>