<svg xmlns="http://www.w3.org/2000/svg" xmlns:xlink="http://www.w3.org/1999/xlink" width="116" height="118" viewBox="0 0 116 118"><defs><clipPath id="a"><rect width="116" height="118" transform="translate(659 1747)" fill="#fff"/></clipPath></defs><g transform="translate(-659 -1747)" clip-path="url(#a)"><g transform="translate(671.962 1747)"><path d="M90.076,14.057v96.726A7.238,7.238,0,0,1,82.858,118H7.218A7.218,7.218,0,0,1,0,110.782V14.057c0-3.721,2.859-3.79,6.494-3.79H83.582C87.217,10.267,90.076,10.336,90.076,14.057Z" fill="#5d5e5e"/><path d="M90.076,7.218v93.315a7.234,7.234,0,0,1-7.218,7.2H7.218A7.234,7.234,0,0,1,0,100.533V7.218A7.249,7.249,0,0,1,7.218,0H82.858a5.642,5.642,0,0,1,.93.069,7.237,7.237,0,0,1,6.219,6.219A5.643,5.643,0,0,1,90.076,7.218Z" fill="#787878"/><path d="M45.038,82.8a35.91,35.91,0,1,1,35.91-35.91A35.95,35.95,0,0,1,45.038,82.8Z" fill="#5d5e5e"/><circle cx="31.635" cy="31.635" r="31.635" transform="translate(13.403 15.255)" fill="#f6f5f5"/><path d="M45.038,61.425A14.535,14.535,0,1,1,59.573,46.89,14.551,14.551,0,0,1,45.038,61.425Z" fill="#ccc"/><g opacity="0.2"><path d="M43.755,57.156a1.279,1.279,0,0,1,1.292-1.292h.086a1.312,1.312,0,0,1,1.309,1.275h0a1.3,1.3,0,0,1-1.275,1.292h-.119A1.275,1.275,0,0,1,43.755,57.156Zm-6.117-1.412a1.29,1.29,0,0,1-.172-1.81h0a1.271,1.271,0,0,1,1.808-.155h0a1.247,1.247,0,0,1,.155,1.792h0a1.219,1.219,0,0,1-.981.466h0A1.347,1.347,0,0,1,37.639,55.744ZM50.731,55.5a1.26,1.26,0,0,1,.138-1.792h0a1.269,1.269,0,0,1,1.808.138h0a1.284,1.284,0,0,1-.138,1.808h0a1.268,1.268,0,0,1-.828.311h0A1.266,1.266,0,0,1,50.731,55.5ZM33.677,48.923a1.264,1.264,0,0,1,1.035-1.482h0a1.26,1.26,0,0,1,1.48,1.033h0a1.26,1.26,0,0,1-1.033,1.482h0a1,1,0,0,1-.224.017h0A1.275,1.275,0,0,1,33.677,48.923Zm21.275.912A1.257,1.257,0,0,1,53.9,48.371h0a1.259,1.259,0,0,1,1.463-1.051h0a1.259,1.259,0,0,1,1.051,1.465h0a1.276,1.276,0,0,1-1.258,1.085h0A.787.787,0,0,1,54.952,49.835ZM35.5,42.911a1.281,1.281,0,0,1-.483-1.758h0a1.271,1.271,0,0,1,1.756-.464h0a1.269,1.269,0,0,1,.466,1.739h0a1.3,1.3,0,0,1-1.12.654h0A1.148,1.148,0,0,1,35.5,42.911Zm17.277-.569h0a1.29,1.29,0,0,1,.449-1.758h0a1.278,1.278,0,0,1,1.756.466h0a1.288,1.288,0,0,1-.448,1.756h0a1.282,1.282,0,0,1-.654.173h0A1.258,1.258,0,0,1,52.781,42.342ZM40.275,37.707a1.3,1.3,0,0,1,.759-1.654h0v.018h0a1.286,1.286,0,0,1,1.654.74h0a1.3,1.3,0,0,1-.759,1.654h0a1.449,1.449,0,0,1-.448.086h0A1.3,1.3,0,0,1,40.275,37.707Zm7.769.723h.018a1.294,1.294,0,0,1-.794-1.635h0a1.291,1.291,0,0,1,1.655-.776h0a1.3,1.3,0,0,1,.774,1.637h0a1.3,1.3,0,0,1-1.223.843h0A1.306,1.306,0,0,1,48.043,38.431Z" fill="#787878"/></g><path d="M45.038,52.875a5.985,5.985,0,1,1,5.985-5.985A5.992,5.992,0,0,1,45.038,52.875Z" fill="#f6f5f5"/><circle cx="2.779" cy="2.779" r="2.779" transform="translate(6.064 5.993)" fill="#5d5e5e"/><circle cx="2.779" cy="2.779" r="2.779" transform="translate(78.454 5.993)" fill="#5d5e5e"/><circle cx="2.779" cy="2.779" r="2.779" transform="translate(6.064 94.343)" fill="#5d5e5e"/><circle cx="2.779" cy="2.779" r="2.779" transform="translate(78.454 94.343)" fill="#5d5e5e"/><rect width="31.991" height="3.919" transform="translate(11.096 107.737)" fill="#717373"/><rect width="6.199" height="4.061" transform="translate(59.333 111.656)" fill="#fdeed2" opacity="0.3"/><rect width="13.252" height="4.061" transform="translate(67.455 111.656)" fill="#fdeed2" opacity="0.3"/><rect width="30.78" height="15.818" transform="translate(43.088 85.981)" fill="#dceccc" opacity="0.1"/><path d="M23.8,41.859,18.32,91.638h0a5.483,5.483,0,0,0,10.966,0h0Z" fill="#e95d7a"/><circle cx="2.307" cy="2.307" r="2.307" transform="translate(21.496 89.276)" fill="#6f6e6e"/><path d="M0,104.038v6.744A7.218,7.218,0,0,0,7.218,118H82.858a7.238,7.238,0,0,0,7.218-7.218V13.962Z" fill="#040000" opacity="0.08"/></g></g></svg>