<?xml version="1.0" encoding="utf-8"?>
<!-- Generator: Adobe Illustrator 25.2.3, SVG Export Plug-In . SVG Version: 6.00 Build 0)  -->
<svg version="1.1" id="レイヤー_1" xmlns="http://www.w3.org/2000/svg" xmlns:xlink="http://www.w3.org/1999/xlink" x="0px"
	 y="0px" viewBox="0 0 512 512" style="enable-background:new 0 0 512 512;" xml:space="preserve">
<style type="text/css">
	.st0{fill:#F96A76;}
	.st1{fill:#E05F6A;}
	.st2{fill:#FAFAFA;}
	.st3{fill:none;stroke:#E05F6A;stroke-width:3;stroke-miterlimit:10;}
	.st4{fill:none;stroke:#E05F6A;stroke-width:3;stroke-linecap:round;stroke-linejoin:round;stroke-miterlimit:10;}
</style>
<g id="_x32_">
	<g>
		<polygon class="st0" points="-473.5,259.2 -366.4,299.4 -366.4,268.4 -473.5,228.2 		"/>
		<path class="st0" d="M-155.9,262.6V137.4c0-13-2.8-26.1-7.6-38.8c-7.2-19-19.1-37-34.1-52.3s-33.1-27.8-53.1-35.3
			c-12.5-4.7-24.8-7-36.4-7c-13.1,0-25.4,3-35.8,9l-0.4,0.2l-165.8,114c-9.5,5.6-17.2,13.7-22.5,23.5c-5.4,10.1-8.2,21.9-8.1,34.9
			v127.1l166.9,62.7v19.9c-9.8,1.4-19.2,3.4-27.8,6c-8.2,2.4-15.8,5.3-22.7,8.6c-10.3,5-19.1,11-25.6,18.3c-3.3,3.7-6,7.7-7.9,12.1
			s-3,9.2-3,14c0,5.1,1.2,10.1,3.2,14.6c1.8,4,4.3,7.7,7.2,11.1c5.2,5.9,11.8,11,19.4,15.3c11.5,6.5,25.5,11.6,41.2,15.1
			c15.7,3.5,33.2,5.4,51.7,5.4c16.1,0,31.4-1.5,45.5-4.2c10.6-2,20.4-4.7,29.4-8.1c6.7-2.5,12.9-5.4,18.5-8.6
			c8.4-4.9,15.5-10.5,20.8-17.3c2.6-3.4,4.8-7.1,6.3-11c1.5-4,2.3-8.2,2.3-12.5c0-4.5-0.9-8.8-2.5-12.9c-1.4-3.6-3.4-6.9-5.7-10
			c-4.1-5.4-9.4-10.1-15.6-14.3c-9.2-6.2-20.5-11.3-33.3-15.2c-9.9-3-20.6-5.3-32-6.9v-44.9L-155.9,262.6z M-495.8,297.3V185.7
			c0-9.9,2.1-18.1,5.6-24.6s8.3-11.3,14.2-14.8l0.4-0.2l11.6-8c3.6-0.7,7.5-1.1,11.6-1.1c8.7,0,18.5,1.8,29,5.7
			c11.2,4.2,21.9,10.4,31.8,18.1c14.8,11.5,27.5,26.3,36.4,42.2s14,32.8,13.9,48.4v100.1h-10.6L-495.8,297.3z M-262.7,422.3
			c7.4,2,14.1,4.5,19.9,7.2c4.3,2,8.2,4.2,11.4,6.4c4.9,3.3,8.4,6.8,10.5,9.9c1.1,1.6,1.8,3,2.3,4.5c0.5,1.4,0.7,2.7,0.7,4.1
			c0,1.8-0.4,3.6-1.3,5.6c-0.8,1.7-2,3.6-3.7,5.5c-2.9,3.4-7.4,7-13.3,10.3c-8.8,5-20.6,9.4-34.5,12.5c-13.8,3.1-29.6,4.8-46.3,4.8
			c-14.5,0-28.4-1.3-40.8-3.7c-9.3-1.8-17.9-4.2-25.4-7c-5.6-2.1-10.6-4.4-14.9-6.9c-6.4-3.7-11.1-7.7-14-11.4
			c-1.4-1.8-2.4-3.6-3-5.2s-0.9-3.1-0.9-4.7s0.3-3.1,0.9-4.8c0.6-1.4,1.4-3,2.6-4.6c2-2.8,5.2-5.8,9.4-8.8c6.3-4.4,15-8.6,25.3-12
			c7.5-2.4,15.9-4.5,24.9-5.9v25.3c0,4.7,1,9.3,2.9,13.2c1.4,3,3.4,5.6,5.6,7.8c3.4,3.3,7.5,5.7,11.8,7.3c4.3,1.5,8.8,2.3,13.3,2.3
			c4.3,0,8.6-0.7,12.7-2c3.1-1,6.1-2.4,8.9-4.3c4.2-2.7,7.9-6.5,10.4-11.2c2.6-4.6,4-10.1,4-16v-22.8
			C-275.9,419.1-269,420.6-262.7,422.3z M-331.9,443.6v-60.3l0.4,0.1l5.3-3.6l22.3-15.3v76.3c0,2.6-0.5,4.5-1.3,6.1
			c-0.6,1.2-1.3,2.2-2.2,3.1c-1.3,1.3-3,2.4-5.1,3.2c-2,0.8-4.3,1.2-6.6,1.2c-1.9,0-3.7-0.3-5.3-0.8c-1.2-0.4-2.3-0.9-3.2-1.5
			c-1.3-0.9-2.3-1.9-3-3.2C-331.4,447.6-331.9,446-331.9,443.6z M-325,350.9v-99.7v-5h-0.1c-0.6-10.9-3.1-21.9-7.2-32.6
			c-7-18.5-18.7-36.2-33.3-51.1c-14.7-14.9-32.4-27.1-51.8-34.4c-8-3-15.8-5-23.4-6l130.6-89.8c6.3-3.6,14-5.6,23.2-5.6
			c8.2,0,17.5,1.7,27.6,5.5c10.8,4,21.2,10,30.8,17.5c14.4,11.2,26.8,25.6,35.4,41.1c4.3,7.7,7.7,15.7,10,23.6s3.5,15.7,3.5,23.2
			v113.5L-325,350.9z"/>
	</g>
	<path class="st0" d="M-396.8,211.3c0,15.4-13.7,23.2-30.6,17.4c-6.3-2.2-12.1-5.9-17-10.5c0.4,0.1,0.7,0.2,1.1,0.4
		c17.5,6,31.7-2.1,31.7-18c0-8.8-4.3-18.1-11.1-25.8C-408.1,181.9-396.8,197.3-396.8,211.3z"/>
</g>
<g>
	<g>
		<g id="XMLID_2_">
			<g>
				<g>
					<path class="st1" d="M437.9,133.5v125.2L310.4,346v44.9c11.4,1.6,22.1,3.9,32,6.9c12.8,3.9,24.1,9,33.3,15.2
						c6.2,4.2,11.5,8.9,15.6,14.3c2.3,3.1,4.3,6.4,5.7,10c1.6,4.1,2.5,8.4,2.5,12.9c0,4.3-0.8,8.5-2.3,12.5c-1.5,3.9-3.7,7.6-6.3,11
						c-5.3,6.8-12.4,12.4-20.8,17.3c-5.6,3.2-11.8,6.1-18.5,8.6c-9,3.4-18.8,6.1-29.4,8.1c-14.1,2.7-29.4,4.2-45.5,4.2
						c-18.5,0-36-1.9-51.7-5.4s-29.7-8.6-41.2-15.1c-7.6-4.3-14.2-9.4-19.4-15.3c-2.9-3.4-5.4-7.1-7.2-11.1c-2-4.5-3.2-9.5-3.2-14.6
						c0-4.8,1.1-9.6,3-14s4.6-8.4,7.9-12.1c6.5-7.3,15.3-13.3,25.6-18.3c6.9-3.3,14.5-6.2,22.7-8.6c8.6-2.6,18-4.6,27.8-6v-19.9
						L74.1,308.8V181.7c-0.1-13,2.7-24.8,8.1-34.9c5.3-9.8,13-17.9,22.5-23.5l165.8-114l0.4-0.2c10.4-6,22.7-9,35.8-9
						c11.6,0,23.9,2.3,36.4,7c20,7.5,38.1,20,53.1,35.3s26.9,33.3,34.1,52.3C435.1,107.4,437.9,120.5,437.9,133.5z M414.1,247.2
						V133.7c0-7.5-1.2-15.3-3.5-23.2c-2.3-7.9-5.7-15.9-10-23.6c-8.6-15.5-21-29.9-35.4-41.1c-9.6-7.5-20-13.5-30.8-17.5
						c-10.1-3.8-19.4-5.5-27.6-5.5c-9.2,0-16.9,2-23.2,5.6L153,118.2c7.6,1,15.4,3,23.4,6c19.4,7.3,37.1,19.5,51.8,34.4
						c14.6,14.9,26.3,32.6,33.3,51.1c4.1,10.7,6.6,21.7,7.2,32.6h0.1v5V347L414.1,247.2z M375.9,450.5c0-1.4-0.2-2.7-0.7-4.1
						c-0.5-1.5-1.2-2.9-2.3-4.5c-2.1-3.1-5.6-6.6-10.5-9.9c-3.2-2.2-7.1-4.4-11.4-6.4c-5.8-2.7-12.5-5.2-19.9-7.2
						c-6.3-1.7-13.2-3.2-20.6-4.6v22.8c0,5.9-1.4,11.4-4,16c-2.5,4.7-6.2,8.5-10.4,11.2c-2.8,1.9-5.8,3.3-8.9,4.3
						c-4.1,1.3-8.4,2-12.7,2c-4.5,0-9-0.8-13.3-2.3c-4.3-1.6-8.4-4-11.8-7.3c-2.2-2.2-4.2-4.8-5.6-7.8c-1.9-3.9-2.9-8.5-2.9-13.2
						v-25.3c-9,1.4-17.4,3.5-24.9,5.9c-10.3,3.4-19,7.6-25.3,12c-4.2,3-7.4,6-9.4,8.8c-1.2,1.6-2,3.2-2.6,4.6
						c-0.6,1.7-0.9,3.2-0.9,4.8c0,1.6,0.3,3.1,0.9,4.7c0.6,1.6,1.6,3.4,3,5.2c2.9,3.7,7.6,7.7,14,11.4c4.3,2.5,9.3,4.8,14.9,6.9
						c7.5,2.8,16.1,5.2,25.4,7c12.4,2.4,26.3,3.7,40.8,3.7c16.7,0,32.5-1.7,46.3-4.8c13.9-3.1,25.7-7.5,34.5-12.5
						c5.9-3.3,10.4-6.9,13.3-10.3c1.7-1.9,2.9-3.8,3.7-5.5C375.5,454.1,375.9,452.3,375.9,450.5z M289.9,436.9v-76.3l-22.3,15.3
						l-5.3,3.6l-0.4-0.1v60.3c0,2.4,0.5,4,1.3,5.3c0.7,1.3,1.7,2.3,3,3.2c0.9,0.6,2,1.1,3.2,1.5c1.6,0.5,3.4,0.8,5.3,0.8
						c2.3,0,4.6-0.4,6.6-1.2c2.1-0.8,3.8-1.9,5.1-3.2c0.9-0.9,1.6-1.9,2.2-3.1C289.4,441.4,289.9,439.5,289.9,436.9z M252.5,347.6
						V247.5c0.1-15.6-5-32.5-13.9-48.4c-8.9-15.9-21.6-30.7-36.4-42.2c-9.9-7.7-20.6-13.9-31.8-18.1c-10.5-3.9-20.3-5.7-29-5.7
						c-4.1,0-8,0.4-11.6,1.1l-11.6,8l-0.4,0.2c-5.9,3.5-10.7,8.3-14.2,14.8S98,171.9,98,181.8v111.6l143.9,54.2H252.5z"/>
					<path class="st0" d="M414.1,133.7v113.5L268.8,347v-99.7v-5h-0.1c-0.6-10.9-3.1-21.9-7.2-32.6c-7-18.5-18.7-36.2-33.3-51.1
						c-14.7-14.9-32.4-27.1-51.8-34.4c-8-3-15.8-5-23.4-6l130.6-89.8c6.3-3.6,14-5.6,23.2-5.6c8.2,0,17.5,1.7,27.6,5.5
						c10.8,4,21.2,10,30.8,17.5C379.6,57,392,71.4,400.6,86.9c4.3,7.7,7.7,15.7,10,23.6C412.9,118.4,414.1,126.2,414.1,133.7z"/>
					<path class="st0" d="M375.2,446.4c0.5,1.4,0.7,2.7,0.7,4.1c0,1.8-0.4,3.6-1.3,5.6c-0.8,1.7-2,3.6-3.7,5.5
						c-2.9,3.4-7.4,7-13.3,10.3c-8.8,5-20.6,9.4-34.5,12.5c-13.8,3.1-29.6,4.8-46.3,4.8c-14.5,0-28.4-1.3-40.8-3.7
						c-9.3-1.8-17.9-4.2-25.4-7c-5.6-2.1-10.6-4.4-14.9-6.9c-6.4-3.7-11.1-7.7-14-11.4c-1.4-1.8-2.4-3.6-3-5.2
						c-0.6-1.6-0.9-3.1-0.9-4.7c0-1.6,0.3-3.1,0.9-4.8c0.6-1.4,1.4-3,2.6-4.6c2-2.8,5.2-5.8,9.4-8.8c6.3-4.4,15-8.6,25.3-12
						c7.5-2.4,15.9-4.5,24.9-5.9v25.3c0,4.7,1,9.3,2.9,13.2c1.4,3,3.4,5.6,5.6,7.8c3.4,3.3,7.5,5.7,11.8,7.3
						c4.3,1.5,8.8,2.3,13.3,2.3c4.3,0,8.6-0.7,12.7-2c3.1-1,6.1-2.4,8.9-4.3c4.2-2.7,7.9-6.5,10.4-11.2c2.6-4.6,4-10.1,4-16v-22.8
						c7.4,1.4,14.3,2.9,20.6,4.6c7.4,2,14.1,4.5,19.9,7.2c4.3,2,8.2,4.2,11.4,6.4c4.9,3.3,8.4,6.8,10.5,9.9
						C374,443.5,374.7,444.9,375.2,446.4z"/>
					<path class="st0" d="M289.9,360.6v76.3c0,2.6-0.5,4.5-1.3,6.1c-0.6,1.2-1.3,2.2-2.2,3.1c-1.3,1.3-3,2.4-5.1,3.2
						c-2,0.8-4.3,1.2-6.6,1.2c-1.9,0-3.7-0.3-5.3-0.8c-1.2-0.4-2.3-0.9-3.2-1.5c-1.3-0.9-2.3-1.9-3-3.2c-0.8-1.3-1.3-2.9-1.3-5.3
						v-60.3l0.4,0.1l5.3-3.6L289.9,360.6z"/>
					<path class="st0" d="M252.5,247.5v100.1h-10.6L98,293.4V181.8c0-9.9,2.1-18.1,5.6-24.6s8.3-11.3,14.2-14.8l0.4-0.2l11.6-8
						c3.6-0.7,7.5-1.1,11.6-1.1c8.7,0,18.5,1.8,29,5.7c11.2,4.2,21.9,10.4,31.8,18.1c14.8,11.5,27.5,26.3,36.4,42.2
						C247.5,215,252.6,231.9,252.5,247.5z M228.8,295.5v-31l-107.1-40.2v31L228.8,295.5z M199,205c0-14-11.3-29.4-25.9-36.5
						c6.8,7.7,11.1,17,11.1,25.8c0,15.9-14.2,24-31.7,18c-0.4-0.2-0.7-0.3-1.1-0.4c4.9,4.6,10.7,8.3,17,10.5
						C185.3,228.2,199,220.4,199,205z"/>
					<polygon class="st2" points="228.8,264.5 228.8,295.5 121.7,255.3 121.7,224.3 					"/>
					<path class="st2" d="M173.1,168.5C187.7,175.6,199,191,199,205c0,15.4-13.7,23.2-30.6,17.4c-6.3-2.2-12.1-5.9-17-10.5
						c0.4,0.1,0.7,0.2,1.1,0.4c17.5,6,31.7-2.1,31.7-18C184.2,185.5,179.9,176.2,173.1,168.5z"/>
				</g>
				<g>
					<polygon class="st3" points="121.7,255.3 228.8,295.5 228.8,264.5 121.7,224.3 					"/>
					<path class="st4" d="M173.1,168.5C187.7,175.6,199,191,199,205c0,15.4-13.7,23.2-30.6,17.4c-6.3-2.2-12.1-5.9-17-10.5
						c0.4,0.1,0.7,0.2,1.1,0.4c17.5,6,31.7-2.1,31.7-18C184.2,185.5,179.9,176.2,173.1,168.5z"/>
				</g>
			</g>
		</g>
	</g>
</g>
</svg>
