<svg xmlns="http://www.w3.org/2000/svg" xmlns:xlink="http://www.w3.org/1999/xlink" width="48" height="48" viewBox="0 0 48 48"><defs><clipPath id="a"><rect width="48" height="48" fill="#fff" stroke="#707070" stroke-width="1"/></clipPath></defs><g clip-path="url(#a)"><g transform="translate(6.94)"><path d="M34.119,12.511V24.253L22.162,32.441v4.211a19.9,19.9,0,0,1,3,.647,11.714,11.714,0,0,1,3.123,1.426,6.114,6.114,0,0,1,1.463,1.341,4.041,4.041,0,0,1,.535.938,3.266,3.266,0,0,1,.019,2.382,4.2,4.2,0,0,1-.591,1.032,6.7,6.7,0,0,1-1.951,1.623,11.857,11.857,0,0,1-1.735.807,16.4,16.4,0,0,1-2.757.76A22.755,22.755,0,0,1,19,48a22.433,22.433,0,0,1-4.849-.506,14.164,14.164,0,0,1-3.864-1.416,7,7,0,0,1-1.819-1.435A4.4,4.4,0,0,1,7.794,43.6a3.39,3.39,0,0,1-.3-1.369,3.335,3.335,0,0,1,.281-1.313,4.225,4.225,0,0,1,.741-1.135,7.645,7.645,0,0,1,2.4-1.716,14.162,14.162,0,0,1,2.129-.807,17.745,17.745,0,0,1,2.607-.563V34.832L0,28.952V17.032a6.772,6.772,0,0,1,.76-3.273,5.677,5.677,0,0,1,2.11-2.2L18.42.863l.038-.019A6.687,6.687,0,0,1,21.815,0a9.728,9.728,0,0,1,3.414.657,13.883,13.883,0,0,1,4.98,3.311,14.393,14.393,0,0,1,3.2,4.905,10.332,10.332,0,0,1,.713,3.639ZM31.887,23.175V12.53a7.806,7.806,0,0,0-.328-2.176,10.73,10.73,0,0,0-.938-2.213A12.9,12.9,0,0,0,27.3,4.286a10.851,10.851,0,0,0-2.889-1.641,7.4,7.4,0,0,0-2.588-.516,4.318,4.318,0,0,0-2.176.525L7.4,11.076a9.951,9.951,0,0,1,2.195.563,13.691,13.691,0,0,1,4.858,3.226,13.963,13.963,0,0,1,3.123,4.792,10.129,10.129,0,0,1,.675,3.057h.009v9.819ZM28.3,42.241a1.106,1.106,0,0,0-.066-.385,1.638,1.638,0,0,0-.216-.422,3.652,3.652,0,0,0-.985-.928,7.49,7.49,0,0,0-1.069-.6,11.64,11.64,0,0,0-1.866-.675c-.591-.159-1.238-.3-1.932-.431v2.138a3.044,3.044,0,0,1-.375,1.5,2.846,2.846,0,0,1-.975,1.05,3.263,3.263,0,0,1-.835.4,3.952,3.952,0,0,1-1.191.188,3.793,3.793,0,0,1-1.247-.216,3.17,3.17,0,0,1-1.107-.685,2.6,2.6,0,0,1-.525-.732,2.851,2.851,0,0,1-.272-1.238V38.837a15.524,15.524,0,0,0-2.335.553,9.343,9.343,0,0,0-2.373,1.125,3.8,3.8,0,0,0-.882.825,2.058,2.058,0,0,0-.244.431,1.313,1.313,0,0,0-.084.45,1.225,1.225,0,0,0,.084.441,1.9,1.9,0,0,0,.281.488A4.592,4.592,0,0,0,11.4,44.22a9.266,9.266,0,0,0,1.4.647,15.046,15.046,0,0,0,2.382.657,20.36,20.36,0,0,0,3.826.347,20.051,20.051,0,0,0,4.342-.45,11.923,11.923,0,0,0,3.236-1.172,4.6,4.6,0,0,0,1.247-.966,2.162,2.162,0,0,0,.347-.516,1.254,1.254,0,0,0,.122-.525Zm-8.066-1.275V33.81l-2.091,1.435-.5.338-.038-.009v5.655a.9.9,0,0,0,.122.5.858.858,0,0,0,.281.3,1.27,1.27,0,0,0,.3.141,1.725,1.725,0,0,0,1.116-.038,1.347,1.347,0,0,0,.478-.3,1.087,1.087,0,0,0,.206-.291,1.233,1.233,0,0,0,.122-.572Zm-3.508-8.375V23.2a9.388,9.388,0,0,0-1.3-4.539,13.354,13.354,0,0,0-3.414-3.958,11.422,11.422,0,0,0-2.982-1.7,7.878,7.878,0,0,0-2.72-.535,5.714,5.714,0,0,0-1.088.1l-1.088.75-.038.019a3.519,3.519,0,0,0-1.332,1.388,4.822,4.822,0,0,0-.525,2.307V27.507l13.5,5.083Z" transform="translate(0)" fill="#e05f6a"/><path d="M33.121,12.885V23.529l-13.627,9.36V23.07h-.009a10.129,10.129,0,0,0-.675-3.057,14.1,14.1,0,0,0-3.123-4.792,13.609,13.609,0,0,0-4.858-3.226,9.951,9.951,0,0,0-2.195-.563L20.881,3.009a4.318,4.318,0,0,1,2.176-.525A7.4,7.4,0,0,1,25.646,3a10.851,10.851,0,0,1,2.889,1.641A12.9,12.9,0,0,1,31.854,8.5a10.73,10.73,0,0,1,.938,2.213A7.806,7.806,0,0,1,33.121,12.885Z" transform="translate(-1.233 -0.355)" fill="#f96a76"/><path d="M29.86,48.323a1.106,1.106,0,0,1,.066.385,1.254,1.254,0,0,1-.122.525,2.162,2.162,0,0,1-.347.516,4.6,4.6,0,0,1-1.247.966,11.923,11.923,0,0,1-3.236,1.172,20.051,20.051,0,0,1-4.342.45A20.359,20.359,0,0,1,16.8,51.99a15.046,15.046,0,0,1-2.382-.656,9.266,9.266,0,0,1-1.4-.647,4.592,4.592,0,0,1-1.313-1.069,1.9,1.9,0,0,1-.281-.488,1.225,1.225,0,0,1-.084-.441,1.313,1.313,0,0,1,.084-.45,2.057,2.057,0,0,1,.244-.431,3.8,3.8,0,0,1,.882-.825,9.343,9.343,0,0,1,2.373-1.125,15.525,15.525,0,0,1,2.335-.553v2.373a2.851,2.851,0,0,0,.272,1.238,2.6,2.6,0,0,0,.525.732,3.17,3.17,0,0,0,1.107.685,3.793,3.793,0,0,0,1.247.216,3.952,3.952,0,0,0,1.191-.188,3.263,3.263,0,0,0,.835-.4,2.846,2.846,0,0,0,.975-1.05,3.044,3.044,0,0,0,.375-1.5V45.266c.694.131,1.341.272,1.932.431a11.639,11.639,0,0,1,1.866.675,7.489,7.489,0,0,1,1.069.6,3.652,3.652,0,0,1,.985.928A1.637,1.637,0,0,1,29.86,48.323Z" transform="translate(-1.621 -6.467)" fill="#f96a76"/><path d="M23.174,39.445V46.6a1.233,1.233,0,0,1-.122.572,1.087,1.087,0,0,1-.206.291,1.347,1.347,0,0,1-.478.3,1.725,1.725,0,0,1-1.116.038,1.27,1.27,0,0,1-.3-.141.858.858,0,0,1-.281-.3.9.9,0,0,1-.122-.5V41.208l.038.009.5-.338Z" transform="translate(-2.935 -5.635)" fill="#f96a76"/><path d="M17.105,25.282V34.67h-.994l-13.5-5.083V19.12a4.822,4.822,0,0,1,.525-2.307,3.519,3.519,0,0,1,1.332-1.388l.038-.019,1.088-.75a5.714,5.714,0,0,1,1.088-.1,7.878,7.878,0,0,1,2.72.535,11.422,11.422,0,0,1,2.982,1.7A13.354,13.354,0,0,1,15.8,20.742,9.388,9.388,0,0,1,17.105,25.282Zm-2.223,4.5V26.876L4.838,23.106v2.907Zm-2.795-8.49a4.21,4.21,0,0,0-2.429-3.423A3.8,3.8,0,0,1,10.7,20.29c0,1.491-1.332,2.251-2.973,1.688a.457.457,0,0,0-.1-.038,4.542,4.542,0,0,0,1.594.985c1.585.544,2.87-.188,2.87-1.632Z" transform="translate(-0.373 -2.079)" fill="#f96a76"/><path d="M15.253,28.3v2.907L5.208,27.439V24.531Z" transform="translate(-0.744 -3.504)" fill="#fafafa"/><path d="M10.493,18.424a4.21,4.21,0,0,1,2.429,3.423c0,1.444-1.285,2.176-2.87,1.632a4.542,4.542,0,0,1-1.594-.985.457.457,0,0,1,.1.038c1.641.563,2.973-.2,2.973-1.688A3.8,3.8,0,0,0,10.493,18.424Z" transform="translate(-1.208 -2.632)" fill="#fafafa"/><path d="M5.208,27.439l10.044,3.77V28.3L5.208,24.531Z" transform="translate(-0.744 -3.504)" fill="none" stroke="#e05f6a" stroke-miterlimit="10" stroke-width="0.328"/><path d="M10.493,18.424a4.21,4.21,0,0,1,2.429,3.423c0,1.444-1.285,2.176-2.87,1.632a4.542,4.542,0,0,1-1.594-.985.457.457,0,0,1,.1.038c1.641.563,2.973-.2,2.973-1.688A3.8,3.8,0,0,0,10.493,18.424Z" transform="translate(-1.208 -2.632)" fill="none" stroke="#e05f6a" stroke-linecap="round" stroke-linejoin="round" stroke-width="0.328"/></g></g></svg>